HIERARCHY
ROOT Hips
{
	OFFSET 0.000000 0.000000 0.000000 
	CHANNELS 6 Xposition Yposition Zposition Zrotation Yrotation Xrotation
	JOINT LeftUpLeg
	{
		OFFSET 1.363060 -1.794630 0.839290 
		CHANNELS 3 Zrotation Yrotation Xrotation
		JOINT LeftLeg
		{
			OFFSET 2.448110 -6.726130 0.000000 
			CHANNELS 3 Zrotation Yrotation Xrotation
			JOINT LeftFoot
			{
				OFFSET 2.562200 -7.039590 0.000000 
				CHANNELS 3 Zrotation Yrotation Xrotation
				JOINT LeftToeBase
				{
					OFFSET 0.157640 -0.433110 2.322550 
					CHANNELS 3 Zrotation Yrotation Xrotation
					End Site
					{
						OFFSET 0.000000 0.000000 0.000000 
					}
				}
			}
		}
	}
	JOINT RightUpLeg
	{
		OFFSET -1.305520 -1.794630 0.839290 
		CHANNELS 3 Zrotation Yrotation Xrotation
		JOINT RightLeg
		{
			OFFSET -2.542530 -6.985550 0.000000 
			CHANNELS 3 Zrotation Yrotation Xrotation
			JOINT RightFoot
			{
				OFFSET -2.568260 -7.056230 0.000000 
				CHANNELS 3 Zrotation Yrotation Xrotation
				JOINT RightToeBase
				{
					OFFSET -0.164730 -0.452590 2.363150 
					CHANNELS 3 Zrotation Yrotation Xrotation
					End Site
					{
						OFFSET 0.000000 0.000000 0.000000 
					}
				}
			}
		}
	}
	JOINT Spine
	{
		OFFSET 0.028270 2.035590 -0.193380 
		CHANNELS 3 Zrotation Yrotation Xrotation
		JOINT Spine1
		{
			OFFSET 0.056720 2.048850 -0.042750 
			CHANNELS 3 Zrotation Yrotation Xrotation
			JOINT Neck1
			{
				OFFSET -0.054170 1.746240 0.172020 
				CHANNELS 3 Zrotation Yrotation Xrotation
				JOINT Head
				{
					OFFSET 0.104070 1.761360 -0.123970 
					CHANNELS 3 Zrotation Yrotation Xrotation
					End Site
					{
						OFFSET 0.000000 0.000000 0.000000 
					}
				}
			}
			JOINT LeftArm
			{
				OFFSET 3.362410 1.200890 -0.311210 
				CHANNELS 3 Zrotation Yrotation Xrotation
				JOINT LeftForeArm
				{
					OFFSET 4.983000 -0.000000 -0.000000 
					CHANNELS 3 Zrotation Yrotation Xrotation
					JOINT LeftHand
					{
						OFFSET 3.483560 -0.000000 -0.000000 
						CHANNELS 3 Zrotation Yrotation Xrotation
						JOINT LeftHandIndex1
						{
							OFFSET 0.715260 -0.000000 -0.000000 
							CHANNELS 3 Zrotation Yrotation Xrotation
							End Site
							{
								OFFSET 0.000000 0.000000 0.000000 
							}
						}
					}
				}
			}
			JOINT RightArm
			{
				OFFSET -3.136600 1.374050 -0.404650 
				CHANNELS 3 Zrotation Yrotation Xrotation
				JOINT RightForeArm
				{
					OFFSET -5.241900 -0.000000 -0.000000 
					CHANNELS 3 Zrotation Yrotation Xrotation
					JOINT RightHand
					{
						OFFSET -3.444170 -0.000000 -0.000000 
						CHANNELS 3 Zrotation Yrotation Xrotation
						JOINT RightHandIndex1
						{
							OFFSET -0.622530 -0.000000 -0.000000 
							CHANNELS 3 Zrotation Yrotation Xrotation
							End Site
							{
								OFFSET 0.000000 0.000000 0.000000 
							}
						}
					}
				}
			}
		}
	}
}
MOTION
Frames: 13
Frame Time: 0.041667
12.787573 17.339396 -11.026402 -1.940922 2.083999 13.661245 -15.422610 -8.871527 -29.764699 1.536914 13.447141 36.960332 -0.136492 4.291746 -11.162278 0.784000 -5.652900 -15.780500 19.928581 16.081740 -29.967020 -1.247297 -13.580492 36.128493 1.691005 -16.096086 -13.065326 -0.832600 5.821300 -16.266700 0.307163 0.195775 1.931570 -1.223343 0.381464 2.577154 7.994474 1.531298 -10.018666 3.590000 0.960700 -6.490800 -52.371493 -38.965086 34.237545 35.047870 -34.946236 -12.935993 -1.101088 -0.897429 26.323749 -7.125000 0.000000 0.000000 54.663961 42.949128 45.638866 -33.367615 30.819022 -9.632872 -1.219875 -1.126622 -18.159805 7.125000 0.000000 0.000000 
12.782151 17.329636 -11.026186 -1.918428 2.200278 13.687321 -15.406916 -9.131582 -29.816403 1.531445 13.472805 36.992870 -0.244423 4.818412 -11.173293 0.962300 -6.246000 -17.500000 19.898090 16.072716 -30.107419 -1.277480 -13.637530 36.263546 1.712784 -16.239007 -13.092107 -0.898900 6.042600 -16.908000 0.356429 0.101794 1.791705 -1.172919 0.336763 2.276034 7.954823 1.563674 -9.982966 3.579000 0.976800 -6.502800 -52.769536 -38.701314 34.413039 35.177481 -35.064657 -13.028873 -1.102560 -0.872667 26.481394 -7.125000 0.000000 0.000000 54.914182 42.789254 45.812231 -33.176274 30.678482 -9.561327 -1.238510 -1.126049 -18.013809 7.125000 0.000000 0.000000 
12.776078 17.329853 -11.027595 -1.917863 2.252996 13.688971 -15.324573 -9.343355 -29.750718 1.526972 13.459765 36.957014 -0.201387 4.629211 -11.224366 0.802700 -5.718300 -15.969200 19.916073 16.017727 -30.172403 -1.285457 -13.655005 36.309937 1.658679 -15.987461 -13.248852 -0.817600 5.769700 -16.117700 0.380798 0.024007 1.692992 -1.209513 0.299883 2.097706 7.876804 1.593625 -9.900796 3.526500 0.987400 -6.453200 -52.921607 -38.652616 34.551444 35.134577 -35.023101 -13.007843 -1.119205 -0.848315 26.261154 -7.125000 0.000000 0.000000 55.241762 42.722061 45.854232 -33.064723 30.583066 -9.505421 -1.243770 -1.128336 -17.720253 7.125000 0.000000 0.000000 
12.766534 17.336685 -11.020113 -1.880608 2.123883 13.495676 -15.326828 -9.268831 -29.457003 1.534047 13.410219 36.923430 -0.112207 4.222928 -11.304604 0.604800 -4.978000 -13.845900 19.974387 15.954705 -29.987724 -1.312601 -13.653201 36.401224 1.583493 -15.609532 -13.425923 -0.626100 5.063400 -14.089500 0.387445 0.026771 1.648889 -1.217860 0.298737 2.006332 7.808672 1.588359 -9.830428 3.479400 0.985600 -6.360900 -53.197963 -38.728947 34.524855 34.997424 -34.865307 -12.890425 -1.115954 -0.873805 26.419622 -7.125000 0.000000 0.000000 55.330809 42.643050 46.025108 -33.108724 30.624442 -9.530862 -1.236357 -1.136014 -17.744623 7.125000 0.000000 0.000000 
12.755147 17.340155 -11.009702 -1.679984 1.972600 13.339890 -15.539448 -9.114758 -29.221899 1.526553 13.361168 36.880022 -0.102901 4.173800 -11.306549 0.575300 -4.857000 -13.501200 19.854318 15.833461 -29.840781 -1.334156 -13.645660 36.451727 1.551110 -15.410015 -13.478324 -0.541100 4.712900 -13.091500 0.386586 0.046006 1.617589 -1.145490 0.300058 1.990779 7.692986 1.586852 -9.755864 3.396000 0.981100 -6.263600 -53.629832 -38.760775 34.487823 34.956196 -34.794640 -12.840006 -1.105151 -0.903877 26.750485 -7.125000 0.000000 0.000000 55.143959 42.530362 46.353735 -33.224696 30.727239 -9.586089 -1.230954 -1.134700 -18.221065 7.125000 0.000000 0.000000 
12.748749 17.339722 -11.000917 -1.581861 1.908721 13.335456 -15.622199 -9.148294 -29.117239 1.506867 13.330381 36.814945 -0.130082 4.308911 -11.323412 0.597500 -4.948300 -13.761100 19.778260 15.738183 -29.880002 -1.345817 -13.659391 36.490407 1.529751 -15.277900 -13.474995 -0.550000 4.751100 -13.200000 0.391916 0.034923 1.598213 -1.150010 0.291285 2.033702 7.544932 1.657803 -9.901404 3.276300 0.993500 -6.349000 -53.787081 -38.810250 34.610492 34.910296 -34.764245 -12.828575 -1.107299 -0.933121 26.635345 -7.125000 0.000000 0.000000 55.090937 42.423778 46.559370 -33.284987 30.794461 -9.609016 -1.234675 -1.121120 -18.478100 7.125000 0.000000 0.000000 
12.742351 17.341240 -10.987687 -1.659563 1.791567 13.253124 -15.540450 -9.012224 -28.952730 1.500478 13.298833 36.776209 -0.152560 4.442265 -11.405453 0.690400 -5.311800 -14.800100 19.924800 15.763711 -29.792054 -1.364627 -13.670436 36.565462 1.541375 -15.349417 -13.447813 -0.605400 4.980400 -13.852800 0.406674 0.093568 1.605780 -1.157551 0.321584 2.132329 7.569716 1.636751 -10.003316 3.301300 0.987300 -6.398200 -53.888708 -38.909894 34.790514 34.908946 -34.760963 -12.840241 -1.109115 -0.949597 26.418961 -7.125000 0.000000 0.000000 55.121236 42.365373 46.505880 -33.186102 30.740221 -9.586513 -1.245690 -1.119159 -18.287110 7.125000 0.000000 0.000000 
12.732374 17.339179 -10.979879 -1.656317 1.692035 13.175769 -15.539458 -8.823102 -28.866042 1.505167 13.285943 36.785196 -0.167680 4.523406 -11.439363 0.770400 -5.604800 -15.641800 19.989114 15.823937 -29.718773 -1.387783 -13.689972 36.656925 1.553844 -15.441436 -13.483927 -0.677200 5.261800 -14.656900 0.422128 0.143380 1.591673 -1.089692 0.344291 2.247574 7.671126 1.577775 -9.806147 3.395800 0.988500 -6.213600 -54.064496 -39.038605 34.980842 34.921876 -34.735221 -12.837706 -1.116052 -0.938447 26.273706 -7.125000 0.000000 0.000000 55.003755 42.413828 46.494846 -33.070289 30.626931 -9.538493 -1.252452 -1.125736 -18.295345 7.125000 0.000000 0.000000 
12.726409 17.332781 -10.975758 -1.544038 1.631251 13.193129 -15.641052 -8.789699 -28.886483 1.511473 13.292872 36.816359 -0.163317 4.504165 -11.442634 0.749500 -5.529900 -15.426400 19.870558 15.831047 -29.794694 -1.410388 -13.726708 36.747726 1.530650 -15.335302 -13.563463 -0.658500 5.190100 -14.451500 0.429908 0.136616 1.544298 -1.043679 0.336835 2.293839 7.679124 1.590470 -9.673461 3.405400 1.004600 -6.087500 -54.273781 -39.121990 35.138004 34.880988 -34.680436 -12.814589 -1.124455 -0.944513 26.302256 -7.125000 0.000000 0.000000 54.900692 42.452505 46.622635 -33.080954 30.587569 -9.481951 -1.240597 -1.121873 -18.405377 7.125000 0.000000 0.000000 
12.720119 17.328768 -10.968492 -1.386556 1.507646 13.173428 -15.806573 -8.650058 -28.865102 1.528849 13.295861 36.870179 -0.100630 4.227097 -11.509462 0.661700 -5.202600 -14.487400 19.719216 15.785169 -29.851465 -1.438610 -13.764007 36.847120 1.545573 -15.394119 -13.515830 -0.737200 5.485300 -15.298000 0.420744 0.156866 1.534418 -1.006598 0.341872 2.346340 7.682033 1.593395 -9.825578 3.412400 1.005600 -6.170900 -54.483288 -39.225278 35.096737 34.798703 -34.599497 -12.759207 -1.120238 -0.975265 26.647453 -7.125000 0.000000 0.000000 54.938258 42.472010 46.628809 -33.104217 30.590702 -9.441912 -1.215776 -1.124443 -18.327464 7.125000 0.000000 0.000000 
12.712311 17.323021 -10.962744 -1.345440 1.422406 13.141451 -15.843370 -8.511603 -28.859903 1.542682 13.301707 36.914788 -0.079834 4.145807 -11.562408 0.636800 -5.105800 -14.210500 19.715873 15.777095 -29.881317 -1.459629 -13.790679 36.926390 1.549602 -15.401039 -13.447900 -0.818300 5.772200 -16.124900 0.423045 0.141788 1.506259 -1.001679 0.333941 2.329198 7.693922 1.595286 -9.997332 3.440600 1.010300 -6.288800 -54.691107 -39.227059 35.012501 34.725809 -34.529494 -12.692839 -1.111174 -0.985865 26.928593 -7.125000 0.000000 0.000000 55.268660 42.458570 46.604014 -33.065340 30.575354 -9.428692 -1.210685 -1.130765 -18.058030 7.125000 0.000000 0.000000 
12.707539 17.318683 -10.957105 -1.441126 1.428191 13.107166 -15.700722 -8.605104 -28.791123 1.548819 13.302870 36.929198 -0.089794 4.211138 -11.611199 0.601300 -4.963900 -13.805700 19.858160 15.821110 -29.842510 -1.470885 -13.798418 36.977729 1.513086 -15.226840 -13.489940 -0.783300 5.650300 -15.772900 0.445798 0.086538 1.441311 -1.041328 0.311118 2.218248 7.675850 1.701552 -10.076351 3.434900 1.057900 -6.367300 -54.866419 -39.104760 35.132970 34.712060 -34.524457 -12.673795 -1.117291 -0.948453 26.804298 -7.125000 0.000000 0.000000 55.603023 42.392172 46.817106 -32.975878 30.517590 -9.395139 -1.216418 -1.132471 -17.878522 7.125000 0.000000 0.000000 
12.702768 17.322479 -10.951791 -1.506942 1.398740 13.026976 -15.583899 -8.709242 -28.644480 1.558864 13.295372 36.944610 -0.066853 4.132865 -11.697773 0.547000 -4.738000 -13.162900 19.981736 15.861589 -29.712876 -1.475686 -13.784779 36.994273 1.479313 -15.070298 -13.578370 -0.738900 5.491500 -15.315900 0.474713 0.045866 1.402185 -1.009920 0.293015 2.139379 7.673250 1.885484 -10.142407 3.433300 1.143600 -6.423500 -54.919612 -39.076230 35.245731 34.652211 -34.482677 -12.646340 -1.133318 -0.926804 26.512365 -7.125000 0.000000 0.000000 55.606420 42.370664 47.279548 -32.915890 30.468060 -9.362586 -1.208893 -1.142584 -18.075094 7.125000 0.000000 0.000000 
